<svg width="24" height="24" xmlns="http://www.w3.org/2000/svg">

 <g>
  <title>background</title>
  <rect fill="none" id="canvas_background" height="402" width="582" y="-1" x="-1"/>
 </g>
 <g>
  <title>Layer 1</title>
  <path id="svg_2" fill="#00007f" d="m12,0c-4.4183,0 -8,3.581665 -8,8c0,1.421021 0.3816,2.75 1.0312,3.906006c0.1079,0.192017 0.221,0.380981 0.3438,0.562988l6.625,11.531006l6.625,-11.531006c0.101999,-0.151001 0.190001,-0.310974 0.281,-0.468994l0.063,-0.093994c0.649,-1.156006 1.031,-2.484985 1.031,-3.906006c0,-4.418335 -3.582001,-8 -8,-8zm0,4c2.209,0 4,1.790894 4,4c0,2.208984 -1.791,4 -4,4c-2.2091,0 -4,-1.791016 -4,-4c0,-2.209106 1.7909,-4 4,-4z"/>
  <path id="svg_3" fill="#ff007f" d="m12,3c-2.7614,0 -5,2.238586 -5,5c0,2.760986 2.2386,5 5,5c2.761,0 5,-2.239014 5,-5c0,-2.761414 -2.239,-5 -5,-5zm0,2c1.657,0 3,1.343079 3,3s-1.343,3 -3,3s-3,-1.343079 -3,-3s1.343,-3 3,-3z"/>
 </g>
</svg>